<?xml version="1.0" encoding="utf-8"?>
<!-- Generator: Adobe Illustrator 15.0.2, SVG Export Plug-In  -->
<!DOCTYPE svg PUBLIC "-//W3C//DTD SVG 1.1//EN" "http://www.w3.org/Graphics/SVG/1.1/DTD/svg11.dtd" [
	<!ENTITY ns_flows "http://ns.adobe.com/Flows/1.0/">
]>
<svg version="1.1"
	 xmlns="http://www.w3.org/2000/svg" xmlns:xlink="http://www.w3.org/1999/xlink" xmlns:a="http://ns.adobe.com/AdobeSVGViewerExtensions/3.0/"
	 x="0px" y="0px" width="482px" height="283px" viewBox="-106.3100586 -28.1591797 482 283"
	 overflow="visible" enable-background="new -106.3100586 -28.1591797 482 283" xml:space="preserve">
<defs>
</defs>
<polygon fill="#2C2B7B" points="1.4580078,49.3710938 11.5537109,49.3710938 11.5537109,34.734375 22.6357422,34.734375 
	22.6357422,25.3710938 11.5537109,25.3710938 11.5537109,20.4121094 22.6357422,20.4121094 22.6357422,11.203125 
	1.4580078,11.203125 "/>
<rect x="47.8574219" y="11.203125" fill="#2C2B7B" width="10.0957031" height="38.1679688"/>
<polygon fill="#2C2B7B" points="80.6855469,11.203125 80.6855469,20.8300781 87.5849609,20.8300781 87.5849609,49.3710938 
	97.6816406,49.3710938 97.6816406,20.8300781 104.7382812,20.8300781 104.7382812,11.203125 "/>
<path fill="#2C2B7B" d="M1.4580078,54.5141602h9.8164062v2.6645508H4.3183594v5.9453125h6.9560547v2.6083984H4.3183594v8.722168
	H1.4580078V54.5141602z"/>
<path fill="#2C2B7B" d="M16.8574219,54.5141602V67.190918c0,3.28125,0.7285156,4.8237305,3.5615234,4.8237305
	c2.6640625,0,3.3935547-1.5424805,3.3935547-4.8237305V54.5141602h2.8886719v12.6484375
	c0,2.0756836-0.1123047,3.6743164-0.9814453,4.9921875c-1.2060547,1.8232422-2.9169922,2.6923828-5.2451172,2.6923828
	c-2.4960938,0-4.2070312-0.7851562-5.4970703-2.6640625C13.96875,70.6962891,13.96875,69.0976562,13.96875,67.1625977V54.5141602
	H16.8574219z"/>
<path fill="#2C2B7B" d="M32.0595703,74.4545898V57.206543h-3.7294922v-2.6923828h10.3486328v2.6923828h-3.7304688v17.2480469
	H32.0595703z"/>
<path fill="#2C2B7B" d="M43.1396484,54.5141602V67.190918c0,3.28125,0.7285156,4.8237305,3.5615234,4.8237305
	c2.6640625,0,3.3935547-1.5424805,3.3935547-4.8237305V54.5141602h2.8886719v12.6484375
	c0,2.0756836-0.1123047,3.6743164-0.9814453,4.9921875c-1.2060547,1.8232422-2.9169922,2.6923828-5.2451172,2.6923828
	c-2.4960938,0-4.2070312-0.7851562-5.4970703-2.6640625c-1.0087891-1.4868164-1.0087891-3.0854492-1.0087891-5.0205078V54.5141602
	H43.1396484z"/>
<path fill="#2C2B7B" d="M56.4912109,74.4545898V54.5141602h5.7490234c4.8515625,0,7.3759766,2.3276367,7.3759766,6.4506836
	c0,3.1967773-2.2714844,5.6650391-5.6650391,5.8334961l5.6650391,7.65625h-3.6181641l-6.6181641-9.2548828v9.2548828H56.4912109z
	 M60.8662109,64.862793c3.9541016,0,5.9169922-1.2617188,5.9169922-3.9262695c0-2.6640625-1.7382812-3.7299805-5.2441406-3.7299805
	h-2.1591797v7.65625H60.8662109z"/>
<path fill="#2C2B7B" d="M72.3671875,74.4545898V54.5141602h10.3486328v2.6645508h-7.4599609v5.9453125h7.4599609v2.6083984
	h-7.4599609v5.9736328h7.4599609v2.7485352H72.3671875z"/>
<path fill="#2C2B7B" d="M94.2197266,74.4545898V54.5141602h2.8886719v19.9404297H94.2197266z"/>
<path fill="#2C2B7B" d="M100.6992188,74.4545898V54.5141602h2.9726562l9.7880859,15.0883789l-0.140625-15.0883789h2.8603516
	v19.9404297h-2.7763672l-10.0117188-15.5371094l0.1962891,15.5371094H100.6992188z"/>
<path fill="#2C2B7B" d="M121.6230469,74.4545898V57.206543h-3.7294922v-2.6923828h10.3486328v2.6923828h-3.7304688v17.2480469
	H121.6230469z"/>
<path fill="#2C2B7B" d="M129.9267578,74.4545898V54.5141602h10.3486328v2.6645508h-7.4599609v5.9453125h7.4599609v2.6083984
	h-7.4599609v5.9736328h7.4599609v2.7485352H129.9267578z"/>
<path fill="#2C2B7B" d="M143.5585938,74.4545898V54.5141602h5.7490234c4.8515625,0,7.3759766,2.3276367,7.3759766,6.4506836
	c0,3.1967773-2.2714844,5.6650391-5.6650391,5.8334961l5.6650391,7.65625h-3.6181641l-6.6181641-9.2548828v9.2548828H143.5585938z
	 M147.9335938,64.862793c3.9541016,0,5.9169922-1.2617188,5.9169922-3.9262695c0-2.6640625-1.7382812-3.7299805-5.2441406-3.7299805
	h-2.1591797v7.65625H147.9335938z"/>
<path fill="#2C2B7B" d="M159.4345703,74.4545898V54.5141602h2.9726562l9.7880859,15.0883789l-0.140625-15.0883789h2.8603516
	v19.9404297h-2.7763672l-10.0117188-15.5371094l0.1962891,15.5371094H159.4345703z"/>
<path fill="#2C2B7B" d="M178.5644531,74.4545898V54.5141602h10.3486328v2.6645508h-7.4599609v5.9453125h7.4599609v2.6083984
	h-7.4599609v5.9736328h7.4599609v2.7485352H178.5644531z"/>
<path fill="#2C2B7B" d="M194.3554688,74.4545898V57.206543h-3.7294922v-2.6923828h10.3486328v2.6923828h-3.7304688v17.2480469
	H194.3554688z"/>
<path fill="#2C2B7B" d="M3.7294922,98.6894531V81.4414062H0v-2.6923828h10.3486328v2.6923828H6.6181641v17.2480469H3.7294922z"/>
<path fill="#2C2B7B" d="M12.0332031,98.6894531V78.7490234h10.3486328v2.6640625H14.921875v5.9458008h7.4599609v2.6083984H14.921875
	v5.9736328h7.4599609v2.7485352H12.0332031z"/>
<path fill="#2C2B7B" d="M26.8144531,92.9399414c0.0839844,2.1035156,1.3466797,3.3935547,3.1132812,3.3935547
	c1.9912109,0,3.28125-1.3178711,3.28125-3.3935547c0-2.215332-1.2060547-2.8041992-3.3935547-3.4775391
	c-1.4306641-0.3925781-2.7763672-0.6171875-4.0107422-2.2998047c-0.6728516-0.8974609-1.0097656-1.9072266-1.0097656-3.0571289
	c0-3.4213867,2.2158203-5.7211914,5.4970703-5.7211914c3.0292969,0,5.0488281,1.9633789,5.2451172,5.3007812h-2.6923828
	c-0.0849609-1.5986328-1.1787109-2.6645508-2.6367188-2.6645508c-1.6269531,0-2.6923828,1.234375-2.6923828,2.9169922
	c0,0.6171875,0.1962891,1.1499023,0.5605469,1.5986328c0.8417969,0.9814453,2.2724609,1.0375977,3.8984375,1.5986328
	c2.6083984,0.9814453,4.0107422,2.8886719,4.0107422,5.5249023c0,3.8139648-2.3554688,6.4223633-6.0019531,6.4223633
	c-3.3652344,0-5.7207031-2.4121094-5.7773438-6.1420898H26.8144531z"/>
<path fill="#2C2B7B" d="M40.6142578,98.6894531V81.4414062h-3.7294922v-2.6923828h10.3486328v2.6923828h-3.7304688v17.2480469
	H40.6142578z"/>
<path fill="#2C2B7B" d="M48.9179688,98.6894531V78.7490234h2.8886719v19.9404297H48.9179688z"/>
<path fill="#2C2B7B" d="M55.3974609,98.6894531V78.7490234h2.9726562l9.7880859,15.0883789l-0.140625-15.0883789h2.8603516
	v19.9404297h-2.7763672L58.0898438,83.1523438l0.1962891,15.5371094H55.3974609z"/>
<path fill="#2C2B7B" d="M93.7392578,88.6210938c-0.2802734,6.3383789-4.515625,10.4609375-10.1806641,10.4609375
	c-2.9726562,0-5.5253906-1.1499023-7.5439453-3.4213867c-1.6826172-1.8793945-2.5800781-4.3193359-2.5800781-7.0678711
	c0-2.7763672,1.0654297-5.3286133,3.1123047-7.3476562c1.9355469-1.9350586,4.3193359-2.8886719,7.2363281-2.8886719
	c4.0664062,0,7.2070312,1.9912109,8.75,5.440918h-3.5615234c-1.3183594-1.6831055-3.1689453-2.5522461-5.4130859-2.5522461
	c-1.8789062,0-3.6181641,0.7290039-4.9355469,2.0751953c-1.4023438,1.4306641-2.1884766,3.3935547-2.1884766,5.3007812
	c0,2.1035156,0.7294922,4.0107422,2.0195312,5.3564453c1.3740234,1.4306641,3.2539062,2.2441406,5.1044922,2.2441406
	c3.0009766,0,5.3564453-1.5986328,6.8710938-4.7958984h-9.0302734v-2.8046875H93.7392578z"/>
<path fill="#2C2B7B" d="M104.3730469,78.7490234h9.8164062v2.6640625h-6.9560547v5.9458008h6.9560547v2.6083984h-6.9560547v8.722168
	h-2.8603516V78.7490234z"/>
<path fill="#2C2B7B" d="M116.7988281,98.6894531h-3.0566406l7.796875-19.9404297h2.8037109l7.796875,19.9404297h-3.1689453
	l-2.1875-5.8056641h-7.7402344L116.7988281,98.6894531z M122.9404297,82.5073242l-2.8603516,7.5722656h5.6650391
	L122.9404297,82.5073242z"/>
<path fill="#2C2B7B" d="M141.6777344,99.0820312c-2.9726562,0-5.5253906-1.1499023-7.5439453-3.4213867
	c-1.6826172-1.8793945-2.5800781-4.3193359-2.5800781-7.0678711c0-2.7763672,1.0654297-5.300293,3.1123047-7.3476562
	c1.9072266-1.8789062,4.2910156-2.8886719,7.0400391-2.8886719c4.0947266,0,7.3193359,2.019043,8.890625,5.5527344h-3.3935547
	c-1.2900391-1.7666016-3.1699219-2.6640625-5.5253906-2.6640625c-1.8789062,0-3.6181641,0.7290039-4.9355469,2.0751953
	c-1.4023438,1.4306641-2.1884766,3.3935547-2.1884766,5.3007812c0,2.1035156,0.7294922,4.0107422,2.0195312,5.3564453
	c1.3740234,1.4306641,3.2539062,2.2441406,5.1044922,2.2441406c2.2998047,0,4.1787109-0.8974609,5.3564453-2.5244141h3.5625
	C148.8574219,97.1748047,145.7167969,99.0820312,141.6777344,99.0820312z"/>
<path fill="#2C2B7B" d="M153.1523438,98.6894531V78.7490234h2.8886719v19.9404297H153.1523438z"/>
<path fill="#2C2B7B" d="M159.6308594,98.6894531V78.7490234h2.8886719V95.940918h6.5341797v2.7485352H159.6308594z"/>
<path fill="#2C2B7B" d="M170.9355469,98.6894531V78.7490234h2.8886719v19.9404297H170.9355469z"/>
<path fill="#2C2B7B" d="M179.2363281,98.6894531V81.4414062h-3.7294922v-2.6923828h10.3486328v2.6923828H182.125v17.2480469
	H179.2363281z"/>
<path fill="#2C2B7B" d="M195.2255859,98.6894531h-2.8886719v-7.3481445l-6.1132812-12.5922852h3.2246094l4.3759766,9.5917969
	l4.375-9.5917969h3.1972656l-6.1708984,12.7607422V98.6894531z"/>
<path fill="#2C2B7B" d="M240.1992188,37.546875c3.9296875,0,7.1152344-3.2128906,7.1152344-7.1767578V7.1767578
	C247.3144531,3.2138672,244.1289062,0,240.1992188,0s-7.1152344,3.2138672-7.1152344,7.1767578v23.1933594
	C233.0839844,34.3339844,236.2695312,37.546875,240.1992188,37.546875"/>
<path fill="#2C2B7B" d="M262.3798828,70.7246094c3.9296875,0,7.1152344-3.2128906,7.1152344-7.1767578v-9.2636719
	c0-3.9638672-3.1855469-7.1767578-7.1152344-7.1767578s-7.1152344,3.2128906-7.1152344,7.1767578v9.2636719
	C255.2646484,67.5117188,258.4501953,70.7246094,262.3798828,70.7246094"/>
<path fill="#2C2B7B" d="M218.0185547,116.8867188c3.9306641,0,7.1152344-3.2128906,7.1152344-7.1757812V82.0205078
	c0-3.9638672-3.1845703-7.1767578-7.1152344-7.1767578c-3.9296875,0-7.1142578,3.2128906-7.1142578,7.1767578v27.6904297
	C210.9042969,113.6738281,214.0888672,116.8867188,218.0185547,116.8867188"/>
<path fill="#2C2B7B" d="M240.1992188,70.7246094c3.9296875,0,7.1152344-3.2128906,7.1152344-7.1767578V50.3457031
	c0-3.9648438-3.1855469-7.1777344-7.1152344-7.1777344s-7.1152344,3.2128906-7.1152344,7.1777344v13.2021484
	C233.0839844,67.5117188,236.2695312,70.7246094,240.1992188,70.7246094"/>
<path fill="#2C2B7B" d="M240.1992188,90.9326172c3.9296875,0,7.1152344-3.2128906,7.1152344-7.1767578v-0.2333984
	c0-3.9628906-3.1855469-7.1767578-7.1152344-7.1767578s-7.1152344,3.2138672-7.1152344,7.1767578v0.2333984
	C233.0839844,87.7197266,236.2695312,90.9326172,240.1992188,90.9326172"/>
<path fill="#2C2B7B" d="M240.1992188,96.5537109c3.9296875,0,7.1152344,3.2128906,7.1152344,7.1767578v22.8994141
	c0,3.9628906-3.1855469,7.1767578-7.1152344,7.1767578s-7.1152344-3.2138672-7.1152344-7.1767578v-22.8994141
	C233.0839844,99.7666016,236.2695312,96.5537109,240.1992188,96.5537109"/>
</svg>
