<svg xmlns:dc="http://purl.org/dc/elements/1.1/" xmlns:cc="http://creativecommons.org/ns#" xmlns:rdf="http://www.w3.org/1999/02/22-rdf-syntax-ns#" xmlns:svg="http://www.w3.org/2000/svg" xmlns="http://www.w3.org/2000/svg" xmlns:sodipodi="http://sodipodi.sourceforge.net/DTD/sodipodi-0.dtd" xmlns:inkscape="http://www.inkscape.org/namespaces/inkscape" width="90" height="150" version="1.1" inkscape:version="0.48.3.1 r9886" sodipodi:docname="gnuradio_logo_icon.svg"><rect id="backgroundrect" width="100%" height="100%" x="0" y="0" fill="none" stroke="none"/>
  <defs id="defs3967"/>
  <sodipodi:namedview id="base" pagecolor="#ffffff" bordercolor="#666666" borderopacity="1.0" inkscape:pageopacity="0.0" inkscape:pageshadow="2" inkscape:zoom="1.4" inkscape:cx="329.00499" inkscape:cy="26.379746" inkscape:document-units="px" inkscape:current-layer="layer1" showgrid="false" fit-margin-top="0" fit-margin-left="0" fit-margin-right="0" fit-margin-bottom="0" inkscape:window-width="1920" inkscape:window-height="1176" inkscape:window-x="0" inkscape:window-y="24" inkscape:window-maximized="1"/>
  <metadata id="metadata3970">
    <rdf:RDF>
      <cc:Work rdf:about="">
        <dc:format>image/svg+xml</dc:format>
        <dc:type rdf:resource="http://purl.org/dc/dcmitype/StillImage"/>
        <dc:title/>
      </cc:Work>
    </rdf:RDF>
  </metadata>
  
<g class="currentLayer"><title>Layer 1</title><rect fill="none" stroke="#009900" stroke-dashoffset="" fill-rule="nonzero" id="svg_1" x="0" y="0" width="90" height="150" style="color: rgb(0, 0, 0);" class="selected" stroke-opacity="1" stroke-width="3"/><g inkscape:label="Layer 1" inkscape:groupmode="layer" id="layer1" class="" fill="#009900" fill-opacity="1">
    <g id="g4684" fill="#009900" fill-opacity="1">
      <path class="fil3" d="m78.93701079711914,67.21494897286988 c3.5053900000000002,3.465 5.2582699999999996,7.69571 5.2582699999999996,12.691774 c0,4.87524 -1.7426000000000001,9.05563 -5.2278,12.54083 c-3.4852,3.4852 -7.64539,5.22779 -12.48024,5.22779 c-3.3916500000000003,0 -6.44775,-0.8248800000000001 -9.16795,-2.47464 l-6.34075,6.34075 c3.94548,4.48866 5.91804,9.83941 5.91804,16.05189 c0,6.69649 -2.39351,12.43842 -7.18087,17.22578 c-4.78701,4.78736 -10.5013,7.18087 -17.142875,7.18087 c-6.751771,0 -12.535866,-2.38004 -17.350511,-7.13977 c-4.815,-4.7593700000000005 -7.222323,-10.51511 -7.222323,-17.26688 c0,-6.75248 2.324055,-12.53587 6.9735819999999995,-17.35087 c4.6488190000000005,-4.815 10.349292,-7.22232 17.101417,-7.22232 c5.988189,0 11.18799,1.78334 15.60083,5.34968 l6.03602,-6.03567 c-3.40972,-3.4370000000000003 -5.11441,-7.57948 -5.11441,-12.42744 c0,-4.915634 1.6922800000000002,-9.126144 5.07685,-12.631534 c0.31429,-0.32528000000000007 0.6353200000000001,-0.6356700000000002 0.9627200000000001,-0.93083 l-6.1728,-6.17279 c-2.6819300000000004,2.54799 -5.857438,3.8221600000000002 -9.526533,3.8221600000000002 c-3.8710620000000002,0 -7.187598,-1.36453 -9.948188,-4.09358 c-2.7609450000000004,-2.72906 -4.141418,-6.02929 -4.141418,-9.90071 c0,-3.87142 1.332993,-7.18795 3.998622,-9.94854 c2.66563,-2.7609500000000002 5.9339770000000005,-4.14142 9.805394,-4.14142 c3.967086,0 7.330393,1.36488 10.091693,4.09394 c2.76024,2.7287 4.14071,6.06082 4.14071,9.99602 c0,2.6925600000000003 -0.6746500000000002,5.11583 -2.02429,7.27016 l6.85275,6.85311 c2.49768,-1.40351 5.30114,-2.10544 8.41146,-2.10544 c5.03646,0 9.3072,1.7323300000000001 12.8126,5.19768 zM38.937677797119136,42.097868972869875 c-2.189409,0 -4.030157,0.7770400000000001 -5.521535,2.3322000000000003 c-1.491378,1.5548000000000002 -2.237244,3.4115 -2.237244,5.56937 c0,2.22094 0.7299210000000002,4.07764 2.1897640000000003,5.56937 c1.459842,1.4913800000000001 3.3161810000000003,2.23689 5.569015,2.23689 c2.126339,0 3.9270430000000003,-0.7692500000000001 5.402833,-2.30846 c1.47543,-1.53922 2.21315,-3.37182 2.21315,-5.4978 c0,-1.0474 -0.19027000000000002,-2.04697 -0.57118,-2.99905 c-0.38055000000000005,-0.9520900000000001 -0.9202,-1.77697 -1.61823,-2.4753600000000002 c-0.6983800000000001,-0.72957 -1.53106,-1.31669 -2.499092,-1.7610200000000003 c-0.9676770000000001,-0.44433000000000006 -1.943504,-0.6661400000000002 -2.927481,-0.6661400000000002 zm-6.364842,61.714484 c-3.818976,0 -7.028858,1.35567 -9.629645,4.06736 c-2.601496,2.71205 -3.902244,5.9499200000000005 -3.902244,9.71363 c0,3.87354 1.272755,7.11141 3.818976,9.71291 c2.545512,2.60079 5.78374,3.90153 9.712913,3.90153 c3.7080710000000003,0 6.848858,-1.34185 9.422362,-4.02661 c2.573153,-2.6837 3.860433,-5.87976 3.860433,-9.58783 c0,-1.82693 -0.3320100000000001,-3.56989 -0.9963799999999999,-5.23028 c-0.6640100000000001,-1.66039 -1.6047600000000002,-3.09933 -2.822596,-4.31681 c-1.217481,-1.27311 -2.670236,-2.29677 -4.358622,-3.07169 c-1.6873230000000001,-0.77492 -3.3895280000000003,-1.16221 -5.105197,-1.16221 zM66.48724079711914,69.87419897286988 c-2.78043,0 -5.11724,0.98681 -7.01078,2.96115 c-1.8939000000000001,1.97433 -2.8406700000000003,4.33133 -2.8406700000000003,7.071374 c0,2.82048 0.92657,5.17748 2.78008,7.0713799999999996 c1.8535,1.8935400000000002 4.21051,2.84032 7.07137,2.84032 c2.6993,0 4.98579,-0.97725 6.85949,-2.93138 c1.87335,-1.9541400000000002 2.8102,-4.28067 2.8102,-6.98032 c0,-1.3298 -0.24165,-2.599014 -0.7253200000000001,-3.807634 c-0.48330000000000006,-1.20863 -1.16822,-2.25638 -2.05476,-3.14256 c-0.8865400000000001,-0.92693 -1.94421,-1.6720900000000003 -3.17303,-2.23618 c-1.22882,-0.56445 -2.46756,-0.8461500000000001 -3.71658,-0.8461500000000001 z" id="path3484" inkscape:connector-curvature="0" style="fill-rule: evenodd;" fill="#009900" fill-opacity="1"/>
      <path class="fil3" d="m14.067206797119141,30.002788972869872 c4.548897,-8.03374 13.97622,-13.55421 24.865865,-13.55421 c10.854209,0 20.255669,5.48503 24.821569,13.4759 l5.54103,-5.6845300000000005 c-6.21354,-9.32279 -17.48799,-15.55547 -30.362599,-15.55547 c-12.967086,0 -24.311338,6.32303 -30.49618,15.7578 l5.630315,5.56051 z" id="path3486" inkscape:connector-curvature="0" style="fill-rule: evenodd;" fill="#009900" fill-opacity="1"/>
      <path class="fil3" d="m38.86610379711914,22.233728972869873 c-9.484725,0 -17.688189,4.4844100000000005 -21.598228,10.99595 l5.61685,5.5474 c2.163189,-5.05347 8.501457,-8.71335 15.981378,-8.71335 c7.554687,0 13.944327,3.73358 16.044447,8.86536 l5.55449,-5.6983500000000005 c-3.91004,-6.51224 -12.1135,-10.99701 -21.598937,-10.99701 z" id="path3488" inkscape:connector-curvature="0" style="fill-rule: evenodd;" fill="#009900" fill-opacity="1"/>
      <text x="137.99616079711913" y="141.8968729728699" class="fil4 fnt0" id="text3496" style="font-size: 17.7626px; font-weight: bold; fill-rule: evenodd; font-family: Harabara;" fill="#009900" fill-opacity="1"/>
      <text x="199.54657079711916" y="141.8968729728699" class="fil4 fnt0" id="text3506" style="font-size: 17.7626px; font-weight: bold; fill-rule: evenodd; font-family: Harabara;" fill="#009900" fill-opacity="1"/>
      <text x="222.47885079711915" y="141.8968729728699" class="fil4 fnt0" id="text3510" style="font-size: 17.7626px; font-weight: bold; fill-rule: evenodd; font-family: Harabara;" fill="#009900" fill-opacity="1"/>
      <text x="287.39582079711914" y="141.8968729728699" class="fil4 fnt0" id="text3520" style="font-size: 17.7626px; font-weight: bold; fill-rule: evenodd; font-family: Harabara;" fill="#009900" fill-opacity="1"/>
      <text x="415.86902079711916" y="141.8968729728699" class="fil4 fnt0" id="text3538" style="font-size: 17.7626px; font-weight: bold; fill-rule: evenodd; font-family: Harabara;" fill="#009900" fill-opacity="1"/>
      <text x="491.2635207971191" y="141.8968729728699" class="fil4 fnt0" id="text3550" style="font-size: 17.7626px; font-weight: bold; fill-rule: evenodd; font-family: Harabara;" fill="#009900" fill-opacity="1"/>
      <text x="630.6678807971191" y="141.8968729728699" class="fil4 fnt0" id="text3570" style="font-size: 17.7626px; font-weight: bold; fill-rule: evenodd; font-family: Harabara;" fill="#009900" fill-opacity="1"/>
    </g>
  </g></g></svg>