<?xml version="1.0" encoding="UTF-8" standalone="no"?>
<!-- Created with Inkscape (http://www.inkscape.org/) -->

<svg
   xmlns:dc="http://purl.org/dc/elements/1.1/"
   xmlns:cc="http://creativecommons.org/ns#"
   xmlns:rdf="http://www.w3.org/1999/02/22-rdf-syntax-ns#"
   xmlns:svg="http://www.w3.org/2000/svg"
   xmlns="http://www.w3.org/2000/svg"
   version="1.1"
   width="175"
   height="67.185997"
   viewBox="0 0 175 67.186"
   id="Calque_1"
   xml:space="preserve"><metadata
     id="metadata214"><rdf:RDF><cc:Work
         rdf:about=""><dc:format>image/svg+xml</dc:format><dc:type
           rdf:resource="http://purl.org/dc/dcmitype/StillImage" /><dc:title></dc:title></cc:Work></rdf:RDF></metadata><defs
     id="defs212" /><path
     d="m 10.728,10.14 h 29.667 v 9.001 H 21.745 V 30.23 H 39.17 v 8.929 H 21.745 V 58.673 H 10.728 V 10.14 z"
     id="path3"
     style="fill:#00a0d0" /><path
     d="M 59.688,10.14 V 58.672 H 48.671 V 10.14 h 11.017 z"
     id="path5"
     style="fill:#00a0d0" /><path
     d="M 78.551,19.356 H 65.518 V 10.14 h 37.299 v 9.217 H 89.568 V 58.672 H 78.551 V 19.356 z"
     id="path7"
     style="fill:#00a0d0" /><g
     id="g9"><path
       d="M 173.716,32.818"
       id="path11"
       style="fill:none" /></g><g
     id="g13"><g
       id="g15"><g
         id="g17"><radialGradient
           cx="-99.251297"
           cy="142.1264"
           r="32.236198"
           id="SVGID_1_"
           gradientUnits="userSpaceOnUse"
           gradientTransform="matrix(1,0,0,-1,219,170.686)"><stop
             id="stop20"
             style="stop-color:#00a9d5;stop-opacity:1"
             offset="0" /><stop
             id="stop22"
             style="stop-color:#00a7d4;stop-opacity:1"
             offset="0.53289998" /><stop
             id="stop24"
             style="stop-color:#00a0cf;stop-opacity:1"
             offset="0.7374" /><stop
             id="stop26"
             style="stop-color:#0094c7;stop-opacity:1"
             offset="0.88489997" /><stop
             id="stop28"
             style="stop-color:#0084bd;stop-opacity:1"
             offset="1" /></radialGradient><path
           d="m 118.943,27.701 c -3.252,3.252 -5.263,7.744 -5.263,12.706 l 0,0 c 0,4.963 2.011,9.454 5.263,12.707 l 0,0 c 3.252,3.252 7.744,5.263 12.707,5.263 l 0,0 c 4.962,0 9.454,-2.011 12.706,-5.263 l 0,0 c 3.252,-3.252 5.263,-7.744 5.263,-12.707 l 0,0 c 0,-4.962 -2.011,-9.454 -5.263,-12.706 l 0,0 c -3.252,-3.252 -7.744,-5.263 -12.706,-5.263 l 0,0 c -4.963,-10e-4 -9.454,2.01 -12.707,5.263 l 0,0 z"
           id="path30"
           style="fill:url(#SVGID_1_)" /></g><g
         id="g32"><circle
           cx="131.63499"
           cy="40.422001"
           r="12.498"
           id="circle34"
           style="fill:#ffffff" /></g><g
         id="g36"><radialGradient
           cx="-99.251198"
           cy="142.1264"
           r="32.236099"
           id="SVGID_2_"
           gradientUnits="userSpaceOnUse"
           gradientTransform="matrix(1,0,0,-1,219,170.686)"><stop
             id="stop39"
             style="stop-color:#00a9d5;stop-opacity:1"
             offset="0" /><stop
             id="stop41"
             style="stop-color:#00a7d4;stop-opacity:1"
             offset="0.53289998" /><stop
             id="stop43"
             style="stop-color:#00a0cf;stop-opacity:1"
             offset="0.7374" /><stop
             id="stop45"
             style="stop-color:#0094c7;stop-opacity:1"
             offset="0.88489997" /><stop
             id="stop47"
             style="stop-color:#0084bd;stop-opacity:1"
             offset="1" /></radialGradient><path
           d="m 119.481,40.407 c 0,-6.721 5.448,-12.169 12.169,-12.169 l 0,0 c 6.721,0 12.169,5.448 12.17,12.169 l 0,0 c 0,6.721 -5.448,12.169 -12.17,12.169 l 0,0 c -6.721,0 -12.169,-5.448 -12.169,-12.169 l 0,0 z m 3.835,-8.333 c -2.133,2.133 -3.452,5.078 -3.452,8.333 l 0,0 c 0,3.255 1.319,6.2 3.452,8.334 l 0,0 c 2.133,2.133 5.079,3.452 8.333,3.452 l 0,0 c 3.255,0 6.2,-1.319 8.334,-3.452 l 0,0 c 2.133,-2.133 3.452,-5.079 3.452,-8.334 l 0,0 c 0,-3.255 -1.318,-6.2 -3.452,-8.333 l 0,0 c -2.133,-2.133 -5.079,-3.452 -8.334,-3.452 l 0,0 c -3.254,0 -6.199,1.319 -8.333,3.452 l 0,0 z"
           id="path49"
           style="fill:url(#SVGID_2_)" /></g><g
         id="g51"><path
           d="m 115.212,36.95 3.151,0.593 -0.135,0.715 -3.151,-0.593 0.135,-0.715 z"
           id="path53"
           style="fill:#ffffff" /><path
           d="m 118.452,36.913 -3.002,-1.125 0.297,-0.793 1.334,-0.212 c 0.383,-0.06 0.824,-0.098 1.213,-0.105 l 0.005,-0.013 c -0.413,-0.104 -0.823,-0.242 -1.278,-0.413 l -0.873,-0.327 0.233,-0.624 3.002,1.125 -0.267,0.713 -1.398,0.208 c -0.387,0.058 -0.848,0.109 -1.255,0.124 l -10e-4,0.015 c 0.403,0.131 0.83,0.28 1.32,0.464 l 0.904,0.339 -0.234,0.624 z"
           id="path55"
           style="fill:#ffffff" /><path
           d="m 120.111,33.238 -3.234,-0.936 0.443,-0.659 1.343,0.433 c 0.377,0.122 0.737,0.243 1.111,0.403 l 0.008,-0.012 c -0.275,-0.282 -0.535,-0.577 -0.778,-0.872 l -0.909,-1.104 0.43,-0.64 2.058,2.685 -0.472,0.702 z"
           id="path57"
           style="fill:#ffffff" /><path
           d="m 121.866,29.104 -0.843,0.825 0.532,0.544 0.941,-0.921 0.416,0.425 -1.461,1.43 -2.242,-2.291 1.414,-1.384 0.416,0.425 -0.894,0.875 0.466,0.476 0.843,-0.825 0.412,0.421 z"
           id="path59"
           style="fill:#ffffff" /><path
           d="m 122.913,29.035 c 0.218,-0.025 0.522,-0.108 0.78,-0.279 0.277,-0.184 0.347,-0.397 0.231,-0.571 -0.111,-0.166 -0.301,-0.177 -0.698,-0.078 -0.546,0.141 -0.999,0.087 -1.257,-0.301 -0.303,-0.455 -0.155,-1.057 0.475,-1.476 0.301,-0.2 0.565,-0.284 0.771,-0.318 l 0.189,0.577 c -0.141,0.02 -0.381,0.071 -0.643,0.245 -0.261,0.174 -0.309,0.377 -0.217,0.516 0.113,0.17 0.314,0.145 0.745,0.047 0.587,-0.139 0.972,-0.041 1.223,0.335 0.298,0.447 0.209,1.061 -0.524,1.548 -0.305,0.203 -0.661,0.32 -0.867,0.337 l -0.208,-0.582 z"
           id="path61"
           style="fill:#ffffff" /><path
           d="m 125.051,25.66 -0.795,0.332 -0.235,-0.562 2.274,-0.949 0.235,0.562 -0.808,0.337 1,2.397 -0.672,0.28 -0.999,-2.397 z"
           id="path63"
           style="fill:#ffffff" /><path
           d="m 127.835,24.09 0.788,3.108 -0.705,0.179 -0.788,-3.108 0.705,-0.179 z"
           id="path65"
           style="fill:#ffffff" /><path
           d="m 129.182,26.3 c 0.204,0.079 0.513,0.148 0.82,0.116 0.331,-0.034 0.492,-0.19 0.47,-0.398 -0.02,-0.199 -0.184,-0.297 -0.581,-0.394 -0.549,-0.13 -0.925,-0.387 -0.973,-0.851 -0.056,-0.544 0.355,-1.007 1.107,-1.085 0.36,-0.037 0.632,0.011 0.83,0.077 l -0.101,0.598 c -0.134,-0.048 -0.37,-0.115 -0.683,-0.082 -0.313,0.033 -0.449,0.19 -0.432,0.355 0.021,0.203 0.21,0.275 0.638,0.388 0.585,0.15 0.88,0.416 0.926,0.865 0.055,0.535 -0.309,1.036 -1.184,1.127 -0.364,0.038 -0.734,-0.024 -0.924,-0.105 l 0.087,-0.611 z"
           id="path67"
           style="fill:#ffffff" /><path
           d="m 131.885,26.097 c 0.186,0.116 0.476,0.241 0.784,0.267 0.332,0.028 0.519,-0.095 0.536,-0.303 0.017,-0.199 -0.125,-0.326 -0.498,-0.495 -0.515,-0.23 -0.836,-0.553 -0.797,-1.017 0.046,-0.545 0.536,-0.924 1.29,-0.86 0.36,0.03 0.619,0.129 0.802,0.23 l -0.21,0.569 c -0.123,-0.072 -0.343,-0.182 -0.656,-0.208 -0.313,-0.026 -0.476,0.103 -0.49,0.269 -0.017,0.204 0.155,0.309 0.554,0.5 0.547,0.256 0.787,0.572 0.749,1.023 -0.045,0.536 -0.496,0.961 -1.373,0.887 -0.365,-0.031 -0.717,-0.161 -0.888,-0.275 l 0.197,-0.587 z"
           id="path69"
           style="fill:#ffffff" /><path
           d="m 136.555,26.325 -1.136,-0.318 -0.205,0.733 1.268,0.355 -0.16,0.572 -1.969,-0.552 0.865,-3.087 1.905,0.534 -0.16,0.572 -1.205,-0.337 -0.18,0.641 1.136,0.318 -0.159,0.569 z"
           id="path71"
           style="fill:#ffffff" /><path
           d="m 139.783,28.069 c 0.178,-0.342 0.396,-0.754 0.626,-1.159 l -0.012,-0.007 c -0.289,0.306 -0.631,0.637 -0.924,0.903 l -0.957,0.894 -0.492,-0.28 0.314,-1.244 c 0.097,-0.382 0.228,-0.833 0.369,-1.235 l -0.008,-0.005 c -0.23,0.367 -0.488,0.79 -0.706,1.125 l -0.652,1.03 -0.583,-0.332 1.763,-2.685 0.839,0.477 -0.256,1.085 c -0.094,0.368 -0.207,0.768 -0.331,1.13 l 0.012,0.007 c 0.262,-0.278 0.566,-0.592 0.834,-0.85 l 0.824,-0.757 0.823,0.468 -1.432,2.873 -0.616,-0.35 0.565,-1.088 z"
           id="path73"
           style="fill:#ffffff" /><path
           d="m 142.547,30.252 -0.856,-0.811 -0.523,0.552 0.956,0.906 -0.409,0.432 -1.485,-1.406 2.204,-2.327 1.437,1.36 -0.409,0.432 -0.908,-0.86 -0.458,0.483 0.856,0.811 -0.405,0.428 z"
           id="path75"
           style="fill:#ffffff" /><path
           d="m 142.063,31.699 2.647,-1.807 0.477,0.699 -0.595,1.212 c -0.172,0.347 -0.394,0.73 -0.613,1.051 l 0.008,0.012 c 0.323,-0.278 0.672,-0.534 1.073,-0.807 l 0.77,-0.525 0.375,0.55 -2.648,1.807 -0.429,-0.629 0.635,-1.263 c 0.175,-0.35 0.399,-0.756 0.621,-1.098 l -0.012,-0.009 c -0.339,0.254 -0.707,0.517 -1.139,0.812 l -0.797,0.544 -0.373,-0.549 z"
           id="path77"
           style="fill:#ffffff" /><path
           d="m 146.466,34.076 -0.32,-0.799 0.565,-0.226 0.916,2.287 -0.565,0.226 -0.326,-0.813 -2.411,0.966 -0.271,-0.676 2.412,-0.965 z"
           id="path79"
           style="fill:#ffffff" /><path
           d="m 145.464,36.754 c -0.061,0.21 -0.102,0.524 -0.043,0.827 0.064,0.327 0.232,0.473 0.438,0.433 0.196,-0.038 0.279,-0.209 0.341,-0.614 0.081,-0.558 0.304,-0.955 0.762,-1.044 0.537,-0.104 1.035,0.264 1.179,1.007 0.069,0.355 0.045,0.631 -0.003,0.834 l -0.605,-0.047 c 0.036,-0.138 0.082,-0.379 0.022,-0.687 -0.06,-0.308 -0.229,-0.43 -0.392,-0.399 -0.201,0.039 -0.255,0.234 -0.33,0.67 -0.098,0.596 -0.336,0.913 -0.78,0.999 -0.528,0.102 -1.059,-0.216 -1.227,-1.08 -0.07,-0.359 -0.041,-0.733 0.023,-0.93 l 0.615,0.031 z"
           id="path81"
           style="fill:#ffffff" /></g><g
         id="g83"><path
           d="m 122.377,50.694 c 0.24,0.123 0.534,0.31 0.829,0.526 0.491,0.361 0.744,0.683 0.855,1.053 0.122,0.396 0.057,0.839 -0.279,1.295 -0.363,0.494 -0.794,0.703 -1.198,0.731 -0.438,0.026 -0.931,-0.171 -1.437,-0.543 -0.303,-0.222 -0.503,-0.399 -0.635,-0.526 l 1.865,-2.536 z m -0.963,2.538 c 0.041,0.048 0.122,0.107 0.195,0.161 0.526,0.392 1.085,0.355 1.539,-0.262 0.398,-0.534 0.292,-1.048 -0.21,-1.417 -0.13,-0.096 -0.223,-0.146 -0.281,-0.171 l -1.243,1.689 z"
           id="path85"
           style="fill:#ffffff" /><path
           d="m 125.781,52.729 -0.676,1.103 -0.378,-0.19 0.48,-1.201 0.574,0.288 z"
           id="path87"
           style="fill:#ffffff" /><path
           d="m 126.146,55.554 -0.471,0.712 -0.715,-0.232 1.921,-2.747 0.905,0.294 -0.044,3.357 -0.742,-0.241 0.019,-0.859 -0.873,-0.284 z m 0.941,-0.265 0.02,-0.709 c 0.004,-0.199 0.023,-0.443 0.037,-0.638 l -0.009,-0.003 c -0.104,0.166 -0.224,0.382 -0.331,0.543 l -0.391,0.588 0.674,0.219 z"
           id="path89"
           style="fill:#ffffff" /><path
           d="m 129.351,57.171 -0.686,-3.296 0.79,0.083 0.246,1.389 c 0.069,0.39 0.13,0.765 0.164,1.17 l 0.014,10e-4 c 0.121,-0.375 0.26,-0.743 0.407,-1.095 l 0.55,-1.32 0.766,0.081 -1.41,3.075 -0.841,-0.088 z"
           id="path91"
           style="fill:#ffffff" /><path
           d="m 134.091,55.785 -1.174,0.117 0.075,0.757 1.311,-0.13 0.059,0.592 -2.035,0.203 -0.317,-3.19 1.969,-0.196 0.059,0.592 -1.245,0.124 0.066,0.663 1.173,-0.117 0.059,0.585 z"
           id="path93"
           style="fill:#ffffff" /><path
           d="m 135.556,56.896 -0.992,-3.048 0.805,-0.262 0.997,0.911 c 0.285,0.262 0.59,0.583 0.837,0.883 l 0.014,-0.004 c -0.176,-0.388 -0.324,-0.795 -0.474,-1.256 l -0.289,-0.886 0.633,-0.206 0.992,3.049 -0.724,0.235 -1.034,-0.964 c -0.287,-0.267 -0.614,-0.596 -0.879,-0.904 l -0.012,0.009 c 0.149,0.397 0.298,0.823 0.46,1.321 l 0.299,0.918 -0.633,0.204 z"
           id="path95"
           style="fill:#ffffff" /><path
           d="m 138.399,52.298 1.524,2.82 -0.64,0.346 -1.524,-2.82 0.64,-0.346 z"
           id="path97"
           style="fill:#ffffff" /><path
           d="m 139.14,51.937 c 0.161,-0.173 0.417,-0.409 0.722,-0.645 0.376,-0.292 0.682,-0.44 0.973,-0.437 0.244,0.003 0.463,0.116 0.644,0.349 0.251,0.323 0.194,0.722 0.038,0.971 l 0.009,0.011 c 0.232,-0.066 0.461,0.027 0.706,0.211 0.301,0.224 0.636,0.493 0.761,0.553 l -0.586,0.455 c -0.1,-0.043 -0.317,-0.199 -0.635,-0.452 -0.313,-0.263 -0.489,-0.265 -0.725,-0.087 l -0.173,0.134 0.774,0.995 -0.567,0.441 -1.941,-2.499 z m 1.414,0.648 0.225,-0.175 c 0.285,-0.222 0.344,-0.496 0.171,-0.718 -0.181,-0.233 -0.429,-0.227 -0.695,-0.026 -0.139,0.108 -0.209,0.181 -0.244,0.22 l 0.543,0.699 z"
           id="path99"
           style="fill:#ffffff" /></g></g><g
       id="g101"><radialGradient
         cx="-99.251198"
         cy="142.1295"
         r="32.243198"
         id="SVGID_3_"
         gradientUnits="userSpaceOnUse"
         gradientTransform="matrix(1,0,0,-1,219,170.686)"><stop
           id="stop104"
           style="stop-color:#00a9d5;stop-opacity:1"
           offset="0" /><stop
           id="stop106"
           style="stop-color:#00a7d4;stop-opacity:1"
           offset="0.53289998" /><stop
           id="stop108"
           style="stop-color:#00a0cf;stop-opacity:1"
           offset="0.7374" /><stop
           id="stop110"
           style="stop-color:#0094c7;stop-opacity:1"
           offset="0.88489997" /><stop
           id="stop112"
           style="stop-color:#0084bd;stop-opacity:1"
           offset="1" /></radialGradient><path
         d="m 121.282,42.839 c -0.129,-0.046 -0.295,0 -0.416,0 -0.246,-0.02 -0.494,0 -0.745,0.039 0.007,0.03 0.013,0.06 0.02,0.09 0.368,-0.093 0.742,-0.153 1.141,-0.129 z"
         id="path114"
         style="fill:url(#SVGID_3_)" /><radialGradient
         cx="-99.251099"
         cy="142.12691"
         r="32.237"
         id="SVGID_4_"
         gradientUnits="userSpaceOnUse"
         gradientTransform="matrix(1,0,0,-1,219,170.686)"><stop
           id="stop117"
           style="stop-color:#00a9d5;stop-opacity:1"
           offset="0" /><stop
           id="stop119"
           style="stop-color:#00a7d4;stop-opacity:1"
           offset="0.53289998" /><stop
           id="stop121"
           style="stop-color:#00a0cf;stop-opacity:1"
           offset="0.7374" /><stop
           id="stop123"
           style="stop-color:#0094c7;stop-opacity:1"
           offset="0.88489997" /><stop
           id="stop125"
           style="stop-color:#0084bd;stop-opacity:1"
           offset="1" /></radialGradient><path
         d="m 123.036,46.88 c 0.081,0 0,-0.121 0.081,-0.121 0.45,-0.12 0.817,-0.371 1.262,-0.532 -0.162,0 -0.287,0.119 -0.445,0 0.08,-0.038 0.121,-0.125 0.242,-0.125 v -0.116 c 0,-0.046 0.04,-0.046 0.085,-0.046 -0.045,0 -0.085,-0.041 -0.085,-0.041 0.04,-0.079 0.166,-0.037 0.246,-0.121 -0.044,0 -0.125,0 -0.125,-0.042 0.125,-0.161 0.335,-0.207 0.541,-0.241 -0.048,-0.083 -0.174,0 -0.174,-0.083 0,-0.042 0.045,-0.042 0.081,-0.042 h -0.081 c -0.08,-0.044 -0.032,-0.124 -0.032,-0.166 0.238,-0.286 0.238,-0.652 0.364,-0.977 -0.045,0 -0.085,0 -0.085,-0.046 -0.409,0.45 -1.06,0.616 -1.674,0.778 h -0.203 c -0.206,0.079 -0.493,0.079 -0.695,-0.042 -0.163,-0.078 -0.247,-0.2 -0.417,-0.323 -0.319,-0.204 -0.643,-0.367 -1.014,-0.487 -0.167,-0.054 -0.336,-0.103 -0.505,-0.148 0.403,1.279 1.019,2.463 1.805,3.512 0.391,-0.216 0.772,-0.413 1.154,-0.629 -0.123,0 -0.207,0.117 -0.326,0.038 z"
         id="path127"
         style="fill:url(#SVGID_4_)" /><radialGradient
         cx="-99.251198"
         cy="142.1275"
         r="32.237801"
         id="SVGID_5_"
         gradientUnits="userSpaceOnUse"
         gradientTransform="matrix(1,0,0,-1,219,170.686)"><stop
           id="stop130"
           style="stop-color:#00a9d5;stop-opacity:1"
           offset="0" /><stop
           id="stop132"
           style="stop-color:#00a7d4;stop-opacity:1"
           offset="0.53289998" /><stop
           id="stop134"
           style="stop-color:#00a0cf;stop-opacity:1"
           offset="0.7374" /><stop
           id="stop136"
           style="stop-color:#0094c7;stop-opacity:1"
           offset="0.88489997" /><stop
           id="stop138"
           style="stop-color:#0084bd;stop-opacity:1"
           offset="1" /></radialGradient><path
         d="m 124.299,48.268 c 0.206,-0.08 0.367,-0.287 0.615,-0.412 0.323,-0.241 0.573,-0.529 0.7,-0.936 0,-0.04 -0.045,-0.078 -0.045,-0.078 -0.53,0.57 -1.145,1.015 -1.8,1.346 -0.238,0.125 -0.483,0.209 -0.732,0.267 0.078,0.083 0.156,0.165 0.237,0.246 0.225,-0.05 0.446,-0.109 0.661,-0.184 0.121,-0.087 0.242,-0.167 0.364,-0.249 z"
         id="path140"
         style="fill:url(#SVGID_5_)" /><radialGradient
         cx="-99.251297"
         cy="142.12621"
         r="32.236099"
         id="SVGID_6_"
         gradientUnits="userSpaceOnUse"
         gradientTransform="matrix(1,0,0,-1,219,170.686)"><stop
           id="stop143"
           style="stop-color:#00a9d5;stop-opacity:1"
           offset="0" /><stop
           id="stop145"
           style="stop-color:#00a7d4;stop-opacity:1"
           offset="0.53289998" /><stop
           id="stop147"
           style="stop-color:#00a0cf;stop-opacity:1"
           offset="0.7374" /><stop
           id="stop149"
           style="stop-color:#0094c7;stop-opacity:1"
           offset="0.88489997" /><stop
           id="stop151"
           style="stop-color:#0084bd;stop-opacity:1"
           offset="1" /></radialGradient><path
         d="m 122.544,42.917 c 0.21,0 0.246,0.328 0.408,0.367 0.246,0.079 0.489,0 0.735,0.165 0,-0.086 -0.04,-0.165 0,-0.244 0.166,-0.162 0.368,0.041 0.53,-0.037 0.333,-0.208 -0.283,-0.578 -0.449,-0.865 0,-0.037 0.045,-0.079 0.045,-0.079 0.327,0.284 0.566,0.616 0.979,0.819 0.206,0.079 0.695,0.203 0.61,-0.045 -0.202,-0.446 -0.61,-0.819 -0.938,-1.222 V 41.61 c -0.085,0 -0.085,-0.042 -0.121,-0.081 v -0.16 c -0.166,-0.079 -0.126,-0.25 -0.203,-0.371 -0.126,-0.203 -0.049,-0.491 -0.126,-0.737 -0.08,-0.241 -0.125,-0.445 -0.161,-0.694 -0.121,-0.694 -0.286,-1.306 -0.363,-1.962 -0.089,-0.773 0.444,-1.384 0.809,-2.079 0.287,-0.491 0.615,-0.981 1.143,-1.308 0.126,-0.491 0.458,-0.903 0.777,-1.306 0.342,-0.416 0.852,-0.623 1.31,-0.843 0,0 4.182,-2.081 9.964,0 0.311,0.166 0.618,0.365 0.817,0.677 0.085,0.124 0.206,0.369 0.121,0.532 -0.077,0.208 -0.121,0.527 -0.328,0.611 -0.235,0.121 -0.57,0.121 -0.857,0.082 -0.162,0 -0.32,-0.04 -0.49,-0.082 0.619,0.25 1.189,0.533 1.597,1.102 0.041,0.083 0.206,0.124 0.364,0.124 0.048,0 0.048,0.084 0.048,0.124 -0.089,0.08 -0.169,0.121 -0.125,0.241 h 0.125 c 0.202,-0.079 0.162,-0.49 0.445,-0.366 0.203,0.124 0.279,0.412 0.166,0.616 -0.166,0.157 -0.332,0.287 -0.494,0.411 -0.04,0.08 -0.04,0.195 0,0.287 0.129,0.158 0.161,0.321 0.206,0.486 0.121,0.287 0.165,0.61 0.287,0.898 0.161,0.607 0.324,1.223 0.287,1.838 0,0.324 -0.174,0.61 -0.044,0.94 0.081,0.327 0.291,0.569 0.449,0.856 0.166,0.249 0.327,0.407 0.449,0.652 0.242,0.408 0.692,0.818 0.493,1.31 -0.126,0.287 -0.57,0.241 -0.857,0.406 -0.242,0.208 -0.041,0.529 0.082,0.737 0.206,0.366 -0.248,0.615 -0.534,0.735 0.08,0.125 0.246,0.083 0.286,0.163 0.037,0.207 0.248,0.328 0.125,0.536 -0.165,0.241 -0.651,0.361 -0.411,0.726 0.165,0.287 0.056,0.608 -0.037,0.903 -0.125,0.366 -0.453,0.528 -0.735,0.611 -0.251,0.083 -0.533,0.083 -0.777,0.042 -0.085,-0.042 -0.157,-0.08 -0.246,-0.08 -0.696,-0.082 -1.391,-0.286 -2.086,-0.286 -0.198,0.042 -0.405,0.079 -0.566,0.162 -0.719,0.521 -1.155,1.266 -1.406,2.049 l -0.395,1.943 c 2.532,-0.389 4.797,-1.584 6.528,-3.314 2.133,-2.133 3.452,-5.078 3.452,-8.333 0,-3.255 -1.319,-6.2 -3.452,-8.333 -2.133,-2.133 -5.079,-3.452 -8.334,-3.452 -3.255,0 -6.2,1.319 -8.333,3.452 -2.133,2.133 -3.452,5.078 -3.452,8.333 0,0.724 0.066,1.432 0.19,2.12 0.311,0.028 0.621,0.072 0.936,0.108 0.534,0.037 1.031,0.157 1.557,0.281 z"
         id="path153"
         style="fill:url(#SVGID_6_)" /><path
         d="m 138.089,39.567 c 0.165,0.042 0.412,0.042 0.412,0.125 -0.085,0.328 -0.57,0.407 -0.817,0.735 h -0.121 c -0.122,0.079 -0.076,0.288 -0.203,0.288 -0.129,-0.042 -0.243,0 -0.367,0.033 0.161,0.166 0.367,0.287 0.614,0.249 0.041,0 0.118,0.084 0.118,0.162 0,0 0.04,0 0.08,-0.042 0.049,0 0.085,0 0.085,0.042 v 0.167 c -0.125,0.163 -0.327,0.079 -0.49,0.121 0.324,0.082 0.651,0.082 0.939,0 0.243,-0.079 0,-0.491 0.162,-0.698 -0.085,0 0,-0.122 -0.085,-0.122 0.085,-0.079 0.166,-0.2 0.246,-0.241 0.089,0 0.206,-0.042 0.251,-0.124 0,-0.082 -0.162,-0.12 -0.13,-0.203 0.246,-0.166 0.456,-0.412 0.372,-0.653 -0.041,-0.124 -0.372,-0.124 -0.574,-0.203 -0.203,-0.084 -0.445,0 -0.692,0.042 -0.206,0 -0.404,0.116 -0.611,0.162 -0.286,0.084 -0.538,0.241 -0.78,0.412 0.287,-0.124 0.57,-0.17 0.901,-0.249 0.249,-0.003 0.459,-0.062 0.69,-0.003 z"
         id="path155"
         style="fill:#808080" /><linearGradient
         x1="-98.9505"
         y1="129.01559"
         x2="-77.943001"
         y2="129.01559"
         id="SVGID_7_"
         gradientUnits="userSpaceOnUse"
         gradientTransform="matrix(1,0,0,-1,219,170.686)"><stop
           id="stop158"
           style="stop-color:#e8ebec;stop-opacity:1"
           offset="0" /><stop
           id="stop160"
           style="stop-color:#f7f8f8;stop-opacity:1"
           offset="0.7044" /><stop
           id="stop162"
           style="stop-color:#ffffff;stop-opacity:1"
           offset="1" /></linearGradient><path
         d="m 133.451,52.056 0.395,-1.943 c 0.251,-0.783 0.687,-1.528 1.406,-2.049 0.161,-0.083 0.367,-0.12 0.566,-0.162 0.695,0 1.39,0.204 2.086,0.286 0.089,0 0.161,0.038 0.246,0.08 0.244,0.041 0.526,0.041 0.777,-0.042 0.283,-0.083 0.61,-0.245 0.735,-0.611 0.094,-0.295 0.202,-0.616 0.037,-0.903 -0.239,-0.365 0.246,-0.485 0.411,-0.726 0.122,-0.208 -0.088,-0.328 -0.125,-0.536 -0.04,-0.08 -0.206,-0.038 -0.286,-0.163 0.286,-0.12 0.74,-0.369 0.534,-0.735 -0.122,-0.208 -0.324,-0.529 -0.082,-0.737 0.287,-0.165 0.731,-0.119 0.857,-0.406 0.199,-0.492 -0.251,-0.902 -0.493,-1.31 -0.122,-0.245 -0.283,-0.403 -0.449,-0.652 -0.158,-0.287 -0.368,-0.529 -0.449,-0.856 -0.13,-0.33 0.044,-0.617 0.044,-0.94 0.037,-0.615 -0.125,-1.23 -0.287,-1.838 -0.122,-0.288 -0.166,-0.611 -0.287,-0.898 -0.045,-0.166 -0.077,-0.328 -0.206,-0.486 -0.04,-0.092 -0.04,-0.207 0,-0.287 0.161,-0.125 0.327,-0.254 0.494,-0.411 0.113,-0.204 0.036,-0.491 -0.166,-0.616 -0.283,-0.124 -0.242,0.287 -0.445,0.366 h -0.125 c -0.044,-0.12 0.036,-0.161 0.125,-0.241 0,-0.04 0,-0.124 -0.048,-0.124 -0.158,0 -0.323,-0.041 -0.364,-0.124 -0.408,-0.569 -0.978,-0.852 -1.597,-1.102 0.17,0.043 0.327,0.082 0.49,0.082 0.287,0.039 0.622,0.039 0.857,-0.082 0.206,-0.083 0.25,-0.402 0.328,-0.611 0.085,-0.163 -0.036,-0.408 -0.121,-0.532 -0.198,-0.313 -0.506,-0.512 -0.817,-0.677 -5.781,-2.081 -9.964,0 -9.964,0 -0.458,0.22 -0.968,0.427 -1.31,0.843 -0.32,0.403 -0.651,0.815 -0.777,1.306 -0.529,0.327 -0.856,0.817 -1.143,1.308 -0.364,0.695 -0.897,1.306 -0.809,2.079 0.077,0.656 0.242,1.268 0.363,1.962 0.036,0.249 0.081,0.453 0.161,0.694 0.077,0.246 0,0.533 0.126,0.737 0.076,0.12 0.036,0.291 0.203,0.371 v 0.16 c 0.036,0.039 0.036,0.081 0.121,0.081 v 0.166 c 0.327,0.403 0.736,0.776 0.938,1.222 0.085,0.248 -0.404,0.124 -0.61,0.045 -0.413,-0.203 -0.651,-0.535 -0.979,-0.819 0,0 -0.045,0.042 -0.045,0.079 0.166,0.287 0.781,0.657 0.449,0.865 -0.161,0.078 -0.364,-0.125 -0.53,0.037 -0.04,0.079 0,0.158 0,0.244 -0.246,-0.165 -0.489,-0.086 -0.735,-0.165 -0.162,-0.038 -0.198,-0.367 -0.408,-0.367 -0.526,-0.124 -1.023,-0.244 -1.557,-0.282 -0.315,-0.036 -0.625,-0.08 -0.936,-0.108 0.022,0.117 0.045,0.235 0.07,0.351 0.251,-0.039 0.499,-0.059 0.745,-0.039 0.121,0 0.287,-0.046 0.416,0 -0.399,-0.025 -0.773,0.036 -1.142,0.13 0.074,0.336 0.163,0.666 0.265,0.99 0.169,0.045 0.338,0.095 0.505,0.148 0.371,0.12 0.695,0.282 1.014,0.487 0.17,0.124 0.254,0.245 0.417,0.323 0.202,0.121 0.489,0.121 0.695,0.042 h 0.203 c 0.615,-0.162 1.266,-0.328 1.674,-0.778 0,0.046 0.04,0.046 0.085,0.046 -0.126,0.325 -0.126,0.69 -0.364,0.977 0,0.042 -0.048,0.122 0.032,0.166 h 0.081 c -0.036,0 -0.081,0 -0.081,0.042 0,0.083 0.126,0 0.174,0.083 -0.206,0.033 -0.416,0.079 -0.541,0.241 0,0.042 0.081,0.042 0.125,0.042 -0.08,0.084 -0.206,0.042 -0.246,0.121 0,0 0.04,0.041 0.085,0.041 -0.045,0 -0.085,0 -0.085,0.046 v 0.116 c -0.121,0 -0.162,0.087 -0.242,0.125 0.158,0.119 0.283,0 0.445,0 -0.445,0.161 -0.812,0.411 -1.262,0.532 -0.081,0 0,0.121 -0.081,0.121 0.118,0.079 0.203,-0.038 0.328,-0.038 -0.381,0.216 -0.762,0.413 -1.154,0.629 0.257,0.343 0.533,0.672 0.826,0.985 0.249,-0.058 0.494,-0.142 0.732,-0.267 0.655,-0.332 1.27,-0.776 1.8,-1.346 0,0 0.045,0.038 0.045,0.078 -0.126,0.408 -0.377,0.695 -0.7,0.936 -0.248,0.124 -0.409,0.332 -0.615,0.412 -0.122,0.082 -0.243,0.161 -0.364,0.249 -0.215,0.075 -0.436,0.134 -0.661,0.184 0.013,0.013 0.026,0.026 0.039,0.039 0.303,0.303 0.623,0.59 0.959,0.86 0.269,-0.191 0.536,-0.378 0.847,-0.478 0.043,0 0.119,0.081 0.198,0.035 0.361,-0.321 0.766,-0.684 1.282,-0.603 0,0.041 0,0.085 0.039,0.085 0.008,0 0.017,0 0.025,0 0.02,-0.014 0.039,-0.029 0.059,-0.044 0,0.035 -0.026,0.043 -0.059,0.044 -0.143,0.107 -0.285,0.212 -0.422,0.319 -0.039,0.041 0,0.078 0.044,0.078 0.198,-0.078 0.313,-0.237 0.516,-0.317 -0.041,0.043 -0.041,0.118 -0.08,0.159 -0.586,0.431 -1.05,0.905 -1.506,1.409 1.849,1.206 4.057,1.907 6.429,1.907 0.616,-0.003 1.219,-0.05 1.807,-0.14 z m 3.828,-12.652 c 0.207,-0.046 0.405,-0.162 0.611,-0.162 0.247,-0.042 0.489,-0.126 0.692,-0.042 0.201,0.079 0.533,0.079 0.574,0.203 0.084,0.241 -0.126,0.487 -0.372,0.653 -0.032,0.083 0.13,0.121 0.13,0.203 -0.045,0.083 -0.162,0.124 -0.251,0.124 -0.08,0.042 -0.161,0.163 -0.246,0.241 0.085,0 0,0.122 0.085,0.122 -0.162,0.207 0.081,0.619 -0.162,0.698 -0.288,0.082 -0.614,0.082 -0.939,0 0.163,-0.042 0.365,0.042 0.49,-0.121 v -0.167 c 0,-0.042 -0.036,-0.042 -0.085,-0.042 -0.04,0.042 -0.08,0.042 -0.08,0.042 0,-0.078 -0.077,-0.162 -0.118,-0.162 -0.246,0.038 -0.452,-0.083 -0.614,-0.249 0.125,-0.033 0.238,-0.076 0.367,-0.033 0.126,0 0.081,-0.209 0.203,-0.288 h 0.121 c 0.247,-0.328 0.732,-0.407 0.817,-0.735 0,-0.083 -0.247,-0.083 -0.412,-0.125 -0.231,-0.059 -0.441,0 -0.689,0 -0.331,0.079 -0.614,0.125 -0.901,0.249 0.242,-0.167 0.493,-0.325 0.779,-0.409 z"
         id="path164"
         style="fill:url(#SVGID_7_)" /><path
         d="m 126.722,48.596 c -0.02,0.015 -0.039,0.029 -0.059,0.044 0.033,-0.002 0.059,-0.009 0.059,-0.044 z"
         id="path166"
         style="fill:#ffffff" /><radialGradient
         cx="-99.250198"
         cy="142.1779"
         r="32.309601"
         id="SVGID_8_"
         gradientUnits="userSpaceOnUse"
         gradientTransform="matrix(1,0,0,-1,219,170.686)"><stop
           id="stop169"
           style="stop-color:#00a9d5;stop-opacity:1"
           offset="0" /><stop
           id="stop171"
           style="stop-color:#0084bd;stop-opacity:1"
           offset="1" /></radialGradient><path
         d="m 126.722,48.596 c -0.02,0.015 -0.039,0.029 -0.059,0.044 0.033,-0.002 0.059,-0.009 0.059,-0.044 z"
         id="path173"
         style="fill:url(#SVGID_8_)" /><path
         d="m 126.722,48.877 c 0.039,-0.041 0.039,-0.115 0.08,-0.159 -0.203,0.08 -0.318,0.24 -0.516,0.317 -0.044,0 -0.084,-0.037 -0.044,-0.078 0.137,-0.107 0.279,-0.212 0.422,-0.319 -0.008,0 -0.016,0 -0.025,0 -0.039,0 -0.039,-0.044 -0.039,-0.085 -0.516,-0.082 -0.921,0.281 -1.282,0.603 -0.08,0.046 -0.155,-0.035 -0.198,-0.035 -0.311,0.1 -0.579,0.288 -0.847,0.478 0.303,0.244 0.619,0.472 0.945,0.685 0.454,-0.502 0.918,-0.976 1.504,-1.407 z"
         id="path175"
         style="fill:#ffffff" /><radialGradient
         cx="-99.251198"
         cy="142.12469"
         r="32.233799"
         id="SVGID_9_"
         gradientUnits="userSpaceOnUse"
         gradientTransform="matrix(1,0,0,-1,219,170.686)"><stop
           id="stop178"
           style="stop-color:#00a9d5;stop-opacity:1"
           offset="0" /><stop
           id="stop180"
           style="stop-color:#00a7d4;stop-opacity:1"
           offset="0.53289998" /><stop
           id="stop182"
           style="stop-color:#00a0cf;stop-opacity:1"
           offset="0.7374" /><stop
           id="stop184"
           style="stop-color:#0094c7;stop-opacity:1"
           offset="0.88489997" /><stop
           id="stop186"
           style="stop-color:#0084bd;stop-opacity:1"
           offset="1" /></radialGradient><path
         d="m 126.722,48.877 c 0.039,-0.041 0.039,-0.115 0.08,-0.159 -0.203,0.08 -0.318,0.24 -0.516,0.317 -0.044,0 -0.084,-0.037 -0.044,-0.078 0.137,-0.107 0.279,-0.212 0.422,-0.319 -0.008,0 -0.016,0 -0.025,0 -0.039,0 -0.039,-0.044 -0.039,-0.085 -0.516,-0.082 -0.921,0.281 -1.282,0.603 -0.08,0.046 -0.155,-0.035 -0.198,-0.035 -0.311,0.1 -0.579,0.288 -0.847,0.478 0.303,0.244 0.619,0.472 0.945,0.685 0.454,-0.502 0.918,-0.976 1.504,-1.407 z"
         id="path188"
         style="fill:url(#SVGID_9_)" /><linearGradient
         x1="-98.879898"
         y1="127.7622"
         x2="-98.7342"
         y2="127.7622"
         id="SVGID_10_"
         gradientUnits="userSpaceOnUse"
         gradientTransform="matrix(1,0,0,-1,219,170.686)"><stop
           id="stop191"
           style="stop-color:#0082bb;stop-opacity:1"
           offset="0" /><stop
           id="stop193"
           style="stop-color:#00a2d0;stop-opacity:1"
           offset="0.83590001" /><stop
           id="stop195"
           style="stop-color:#00a9d5;stop-opacity:1"
           offset="1" /></linearGradient><path
         d="m 120.14,42.969 c -0.007,-0.03 -0.013,-0.06 -0.02,-0.09"
         id="path197"
         style="fill:url(#SVGID_10_)" /><linearGradient
         x1="-101.879"
         y1="130.3302"
         x2="-87.663803"
         y2="118.1962"
         id="SVGID_11_"
         gradientUnits="userSpaceOnUse"
         gradientTransform="matrix(1,0,0,-1,219,170.686)"><stop
           id="stop200"
           style="stop-color:#0082bb;stop-opacity:1"
           offset="0" /><stop
           id="stop202"
           style="stop-color:#00a2d0;stop-opacity:1"
           offset="0.83590001" /><stop
           id="stop204"
           style="stop-color:#00a9d5;stop-opacity:1"
           offset="1" /></linearGradient><path
         d="m 120.14,42.969 c -0.007,-0.03 -0.013,-0.06 -0.02,-0.09"
         id="path206"
         style="fill:url(#SVGID_11_)" /></g></g><text
     transform="translate(113.0181,19.1145)"
     id="text208"
     style="font-size:12px;fill:#00a0d0;font-family:Futura-Medium">R2lab</text>
</svg>